<?xml version="1.0" encoding="utf-8"?>
<!-- Generator: Adobe Illustrator 18.1.1, SVG Export Plug-In . SVG Version: 6.00 Build 0)  -->
<svg version="1.1" id="レイヤー_1" xmlns="http://www.w3.org/2000/svg" xmlns:xlink="http://www.w3.org/1999/xlink" x="0px"
	 y="0px" viewBox="0 0 512 512" enable-background="new 0 0 512 512" xml:space="preserve">
<circle display="none" fill="#FFFFFF" stroke="#000000" stroke-width="0.825" stroke-miterlimit="10" cx="256" cy="256" r="132"/>
<circle display="none" fill="#FFFFFF" stroke="#000000" stroke-miterlimit="10" cx="256" cy="256" r="42"/>
<g>
	<g>
		<path fill="#CBCBCB" stroke="#0E1B6E" stroke-width="5.7695" stroke-miterlimit="10" d="M383.3,389c0-0.1,10.7,6.2,20.5,2.4
			c-8.9,17.1-20.8,24.9-32.3,26.1C363,418.8,384.3,389.6,383.3,389z"/>
		<path fill="none" stroke="#0E1B6E" stroke-width="2.8847" stroke-miterlimit="10" d="M375.1,405.7c-0.1,0.1,10-3.2,15.5-13.2"/>
		<path fill="none" stroke="#0E1B6E" stroke-width="2.8847" stroke-miterlimit="10" d="M375.5,411.8c0,0.2,15.2-8,20.6-18.6"/>
	</g>
	<g>
		<path fill="#CBCBCB" stroke="#0E1B6E" stroke-width="5.7695" stroke-miterlimit="10" d="M289.6,476.6c0.2,0-6.5,13.9-1.3,21.4
			c-24.3,0.6-37-6.8-41.2-16.4c-1.7-4,8.8-3.9,19.8-4.3C278,477.2,289.5,476.6,289.6,476.6z"/>
		<path fill="none" stroke="#0E1B6E" stroke-width="2.8847" stroke-miterlimit="10" d="M264.6,478.7c-0.1-0.1,6.6,7.5,21.1,7"/>
		<path fill="none" stroke="#0E1B6E" stroke-width="2.8847" stroke-miterlimit="10" d="M256.1,482.4c-0.2,0,14.2,9.8,29.3,9.1"/>
	</g>
	<path fill="#CBCBCB" stroke="#0E1B6E" stroke-width="5.7695" stroke-miterlimit="10" d="M225.7,380.5c-0.9-0.4,17.9-15.6,33.9-37.6
		c7.8,30,38.9,36.7,38.6,35.7C275.2,387.8,249.1,388.4,225.7,380.5z"/>
	<path fill="#CBCBCB" stroke="#0E1B6E" stroke-width="5.7695" stroke-miterlimit="10" d="M306.5,349.4c-3,5.8-5.9,14-10.8,25.8
		c-5.4,10.3,7.7,11.1,20.3,4.5c12.9-5.8,25.4-19,24.8-19.2C340.5,361.6,314.2,359.1,306.5,349.4z"/>
	<path fill="none" stroke="#0E1B6E" stroke-width="2.8847" stroke-miterlimit="10" d="M262,351c0.6,0.3-13.2,15.1-24.2,30.9"/>
	<path fill="none" stroke="#0E1B6E" stroke-width="2.8847" stroke-miterlimit="10" d="M266.8,358.3c0.1,0.1-8.4,10.6-16.1,25.4"/>
	<path fill="none" stroke="#0E1B6E" stroke-width="2.8847" stroke-miterlimit="10" d="M258.8,387.5c7.3-14.2,12.7-22.7,12.8-22.7"/>
	<path fill="none" stroke="#0E1B6E" stroke-width="2.8847" stroke-miterlimit="10" d="M276.7,369.8c0.1,0-4,7.9-5.9,14.6"/>
	<path fill="none" stroke="#0E1B6E" stroke-width="1.4842" stroke-miterlimit="10" d="M282.5,373.3c0.1,0-2.3,6.6-3.7,9.3"/>
	<path fill="none" stroke="#0E1B6E" stroke-width="2.8847" stroke-miterlimit="10" d="M311.5,354.5c0.1,0.1-5.1,12.6-7.9,25"/>
	<path fill="none" stroke="#0E1B6E" stroke-width="2.8847" stroke-miterlimit="10" d="M317.9,356.3c0.2,0-4.1,12.9-6,20.4"/>
	<path fill="none" stroke="#0E1B6E" stroke-width="2.8847" stroke-miterlimit="10" d="M323.4,357.8c0,0-2.2,6.1-2,15"/>
	<g>
		<path fill="#CBCBCB" d="M384.3,369.9c2.9,1,5.8,1.9,8.7,2.8c-3.3,3.5-6.6,6.9-10.1,10C383.6,378.4,384,374.1,384.3,369.9z"/>
		<path fill="#0E1B6E" d="M384.3,369.9c-0.3,4.3-0.7,8.5-1.4,12.8c3.4-3.1,6.8-6.4,10.1-10C390.1,371.8,387.2,370.9,384.3,369.9
			C384.3,369.9,384.3,369.9,384.3,369.9z"/>
	</g>
	<g>
		<path fill="#CBCBCB" d="M337,357.8c0.2-2.2,0.3-4.5,0.4-6.7c2,1,4,2,6,3C341.3,355.4,339.2,356.7,337,357.8z"/>
		<path fill="#0E1B6E" d="M337.4,351.1c-0.1,2.2-0.2,4.4-0.4,6.7c2.2-1.1,4.3-2.4,6.4-3.7C341.4,353.1,339.4,352.2,337.4,351.1
			C337.4,351.1,337.4,351.1,337.4,351.1z"/>
	</g>
	<g>
		<path fill="#CBCBCB" d="M344,352.4c0.1-2.3,0-4.6-0.1-6.8c2.1,0.8,4.2,1.6,6.3,2.4C348.2,349.6,346.1,351,344,352.4z"/>
		<path fill="#0E1B6E" d="M344,345.6c0.1,2.3,0.1,4.5,0.1,6.8c2.1-1.4,4.2-2.9,6.2-4.4C348.1,347.2,346,346.4,344,345.6L344,345.6z"
			/>
	</g>
	<g>
		<path fill="#CBCBCB" d="M352.4,345.7c-0.1-2.4-0.3-4.7-0.5-7.1c2.2,0.6,4.3,1.2,6.5,1.7C356.4,342.3,354.4,344.1,352.4,345.7z"/>
		<path fill="#0E1B6E" d="M351.9,338.7c0.3,2.3,0.4,4.7,0.5,7.1c2-1.7,4-3.5,6-5.4C356.2,339.9,354,339.3,351.9,338.7
			C351.9,338.7,351.9,338.7,351.9,338.7z"/>
	</g>
	<g>
		<path fill="#CBCBCB" d="M359.4,339.7c-0.2-2.4-0.6-4.9-1-7.3c2.2,0.4,4.4,0.8,6.7,1.1C363.3,335.7,361.4,337.7,359.4,339.7z"/>
		<path fill="#0E1B6E" d="M358.5,332.4c0.4,2.4,0.7,4.8,1,7.3c1.9-1.9,3.9-4,5.7-6.2C362.9,333.2,360.7,332.8,358.5,332.4
			L358.5,332.4z"/>
	</g>
	<g>
		<path fill="#CBCBCB" d="M365.3,333.1c-0.4-2.5-0.8-5-1.4-7.4c2.2,0.2,4.5,0.4,6.8,0.5C369,328.6,367.2,330.9,365.3,333.1z"/>
		<path fill="#0E1B6E" d="M364,325.6c0.5,2.4,1,4.9,1.4,7.4c1.9-2.2,3.7-4.5,5.4-6.9C368.5,326,366.2,325.9,364,325.6L364,325.6z"/>
	</g>
	<g>
		<path fill="#CBCBCB" d="M385.5,355.6c2.5,0.7,5.1,1.3,7.7,1.9c-2.5,3.2-5.1,6.3-7.8,9.2C385.5,362.9,385.6,359.2,385.5,355.6z"/>
		<path fill="#0E1B6E" d="M385.5,355.6c0.1,3.6,0.1,7.3-0.1,11c2.7-2.9,5.3-5.9,7.8-9.2C390.6,356.9,388,356.2,385.5,355.6
			L385.5,355.6z"/>
	</g>
	<g>
		<path fill="#CBCBCB" d="M381.7,342.5c2.9,0.1,5.8,0.1,8.7,0.1c-2.1,3.8-4.3,7.3-6.6,10.7C383.1,349.6,382.5,346,381.7,342.5z"/>
		<path fill="#0E1B6E" d="M381.7,342.5c0.8,3.5,1.5,7.1,2,10.8c2.3-3.4,4.5-7,6.6-10.7C387.4,342.6,384.5,342.6,381.7,342.5
			L381.7,342.5z"/>
	</g>
	<g>
		<path fill="#CBCBCB" d="M376.8,333.9c2.9-0.5,5.9-1.1,8.8-1.7c-1.5,3.9-3.2,7.6-5,11.2C379.5,340.2,378.2,337,376.8,333.9z"/>
		<path fill="#0E1B6E" d="M376.8,333.9c1.4,3.1,2.7,6.3,3.9,9.5c1.8-3.6,3.4-7.4,5-11.2C382.7,332.9,379.7,333.5,376.8,333.9
			L376.8,333.9z"/>
	</g>
	<g>
		<path fill="#CBCBCB" d="M374.4,324.9c2.3-0.5,4.6-1,6.9-1.7c-1,3-2.1,6-3.3,8.8C376.9,329.6,375.7,327.2,374.4,324.9z"/>
		<path fill="#0E1B6E" d="M374.4,324.9c1.2,2.3,2.4,4.7,3.6,7.2c1.2-2.9,2.3-5.8,3.3-8.8C379,323.8,376.7,324.4,374.4,324.9
			C374.4,324.9,374.4,324.9,374.4,324.9z"/>
	</g>
	<path fill="#FFFFFF" stroke="#0E1B6E" stroke-width="5.7695" stroke-miterlimit="10" d="M251.9,381.4
		c-28.7-1.4-55.6-11.3-74.4-24.4c-19-12.6-29.8-28.5-29.9-27.8c-3.1,4.8-5.2,13.5-7.8,18.9c-2.9-4.1-9.4-10.8-9.4-10.8
		s-7.2,26.1-7.2,41.1c0,16.1,4.1,37.8,19,56.7c14.7,18.7,38.2,36.6,70.9,43.6c70.4,15.6,126.3-16.6,151-52
		c26.4-36.5,21.7-76.1,10.1-99.7c-0.4-0.7-9.7,12.4-29.5,26.9C324.9,368.1,294.7,383.8,251.9,381.4z"/>
	<path fill="#0E1B6E" d="M374.1,328.6c-1.6-1.4-5.4,0.4-5.4,0.4c-4.6,4.8-12.9,13.7-25.4,22.9c-17.7,13-48.1,29.6-91.3,27.2
		c-27.9-1.4-54.3-10.8-73-23.8c-18.8-12.4-29.7-28.3-29.9-28c-0.1-0.1-0.2-0.3-0.4-0.4c-1.2,1-9.1,19.6-9,21.8
		c-3.8,27.8,4.2,48.9,11.4,61.5c7.5,12.9,14.1,17.2,14,17.5c-0.8-0.2,27.6,8.9,56.4,6.5c29.3-0.9,59.2-13.2,72.5-20
		c11.3-5,30.4-14.7,45.9-30.5C355.9,368.2,368.1,347,374.1,328.6z"/>
	<path fill="#FFFFFF" d="M189.7,372.8c2.1,0.4,4.1,0.6,6.2,0.9c-0.7,0,6.5,21.9-1.1,40.1c-4,8.3-11.9,18.1-29.4,11.9
		c3.2,10.2-7.6,5.4-7.6,5.4s-1.8-14.6-2-14.3c-0.1,0.2,16.1,6.1,27-6C195.9,395,188.8,372.7,189.7,372.8z"/>
	<path fill="#FFFFFF" d="M205.7,391.5c1.8,0.2,3.6,0.4,5.4,0.5c-0.4,0,3.9,17.5,0,27c-4.3,9.6-14.2,16.8-14.3,16.7
		c-1.6-1.7-3.1-3.4-4.5-5.1c0.1,0.1,9.3-8.4,12.7-17C208.1,405.1,205.4,391.5,205.7,391.5z"/>
	<path fill="#0E1B6E" d="M290.9,422.6c-0.4,2.6-1.2,3.6-2,5.8c-0.1,0.4-0.3,0.8-0.4,1.3c44.9-17.4,77-49.9,84.9-100.7
		C360.2,388.9,310.8,416.3,290.9,422.6z"/>
	<path fill="#0E1B6E" d="M284.2,438.8c-1.1,4-1.4,3.9-7.3,11c32.7-3.4,67.9-31.5,83.2-60.5c17.1-28.9,14.3-58.9,13.5-62.6
		c-1.3,32.1-15.1,60-33,78.9C322.7,424.8,300.8,435,284.2,438.8z"/>
	<path fill="#0E1B6E" d="M271.3,459.8c-5.8,7.1-9.7,10.8-18.5,15.6c72.5-8.9,105.1-50.1,117.8-80.5c12.9-32.3,6-53.7,3.2-67.3
		c5.6,28.6-3,60.9-22.5,85.2C332.1,437.6,301.8,454.2,271.3,459.8z"/>
	<g>
		<path fill="#FFFFFF" stroke="#0E1B6E" stroke-width="5.7695" stroke-miterlimit="10" d="M167.9,428.5c0,0,18.9,5.2,41.6,4.8
			c22.9,0.3,49.3-5.5,67.2-11.8c-13.2,13.5-25.8,25-24.5,39.2c-21.3,2.6-44.5-4.8-60-13.7C176.4,438.3,167.9,428.5,167.9,428.5z"/>
		<path fill="none" stroke="#0E1B6E" stroke-width="2.8847" stroke-miterlimit="10" d="M175.5,430.2c31.2,10.6,63.3,10.8,91.5,3.4"
			/>
		<path fill="none" stroke="#0E1B6E" stroke-width="2.8847" stroke-miterlimit="10" d="M172.3,430.9c26.8,12.1,55.5,16.5,83,14.2"/>
		<path fill="none" stroke="#0E1B6E" stroke-width="2.8847" stroke-miterlimit="10" d="M177.3,436c21.6,9.9,51.4,17.4,74.7,18.1"/>
	</g>
</g>
<g>
	<path fill="#CBCBCB" stroke="#0E1B6E" stroke-width="4.0225" stroke-miterlimit="10" d="M371,327.7c14.2,0.6,41.2-25,43.2-45.7
		c-10,8.4-27.5,16.6-42.4,16.4c-14.7-0.2-27.3-4-39.1-17.6C341.7,303.1,356.8,327.1,371,327.7z"/>
	<path fill="none" stroke="#0E1B6E" stroke-width="2.0113" stroke-miterlimit="10" d="M371,327.7c-17-13.7-26.3-35.9-26.3-35.9"/>
	<path fill="none" stroke="#0E1B6E" stroke-width="2.0113" stroke-miterlimit="10" d="M354.4,295.8c0,0,10.6,24.9,17.4,32
		c0.3,0.3,0.5,0.5,0.8,0.7"/>
	<path fill="none" stroke="#0E1B6E" stroke-width="2.0113" stroke-miterlimit="10" d="M364.4,298.4c0,0,5.1,24,6,27.3"/>
	<path fill="none" stroke="#0E1B6E" stroke-width="2.0113" stroke-miterlimit="10" d="M369.5,328.1c3.6-4,3.6-29.4,3.6-29.4"/>
	<path fill="none" stroke="#0E1B6E" stroke-width="2.0113" stroke-miterlimit="10" d="M382.3,298.8C377.5,320.2,370,329,370,329"/>
	<path fill="none" stroke="#0E1B6E" stroke-width="2.0113" stroke-miterlimit="10" d="M371.3,329.3c0,0,19.8-22.7,20.5-33.8"/>
	<path fill="none" stroke="#0E1B6E" stroke-width="2.0113" stroke-miterlimit="10" d="M373.8,327.7c0,0,27.3-23.2,28-37.5"/>
</g>
<g>
	<ellipse fill="#FFFFFF" cx="161" cy="367.2" rx="12.4" ry="11.5"/>
	<path fill="#0E1B6E" d="M161.5,368.2l7.4,3.9c1-1.4,1.6-3.1,1.6-4.9c0-4.9-4.3-8.9-9.6-8.9s-9.6,4-9.6,8.9c0,4.9,4.3,8.9,9.6,8.9
		c0.9,0,1.8-0.1,2.6-0.3L161.5,368.2z"/>
</g>
</svg>
